<?xml version="1.0" standalone="no"?>
<!DOCTYPE svg PUBLIC "-//W3C//DTD SVG 20010904//EN"
 "http://www.w3.org/TR/2001/REC-SVG-20010904/DTD/svg10.dtd">
<svg version="1.0" xmlns="http://www.w3.org/2000/svg"
 width="450.000000pt" height="450.000000pt" viewBox="0 0 450.000000 450.000000"
 preserveAspectRatio="xMidYMid meet">

<g transform="translate(0.000000,450.000000) scale(0.100000,-0.100000)"
fill="#000000" stroke="none">
<path d="M0 2250 l0 -2250 2250 0 2250 0 0 2250 0 2250 -2250 0 -2250 0 0
-2250z m2330 756 c326 -82 504 -237 591 -516 21 -66 24 -94 24 -240 -1 -160
-2 -168 -33 -260 -88 -255 -269 -414 -552 -486 -101 -26 -117 -27 -457 -31
l-353 -5 0 782 0 782 358 -5 c283 -4 370 -8 422 -21z"/>
<path d="M1830 2621 l0 -129 193 -4 c212 -5 243 -12 305 -71 63 -61 79 -195
33 -285 -24 -48 -45 -66 -106 -94 -45 -20 -70 -23 -237 -26 l-186 -4 -1 -130
-2 -130 208 5 c226 5 270 13 380 67 199 98 291 375 207 622 -43 126 -100 189
-229 249 -105 48 -175 59 -388 59 l-177 0 0 -129z"/>
</g>
</svg>
