<svg id="svg" version="1.1" xmlns="http://www.w3.org/2000/svg" style="display: block;" viewBox="0 0 400 400"><path d="M0 0 C132 0 264 0 400 0 C400 132 400 264 400 400 C268 400 136 400 0 400 C0 268 0 136 0 0 Z " transform="translate(0,0)" style="fill: #224389;"/><path d="M0 0 C156.20303605 0 156.20303605 0 193 32 C194.26457031 33.06541016 194.26457031 33.06541016 195.5546875 34.15234375 C218.10940975 53.65635128 231.12521606 82.71072897 233.81469727 112.15673828 C234.8692817 128.33814838 235.26099953 145.26707864 231 161 C230.66778778 162.35412228 230.33576401 163.70829081 230.00390625 165.0625 C223.23814932 191.29496435 208.54146575 213.56693899 187 230 C185.83210938 230.90878906 185.83210938 230.90878906 184.640625 231.8359375 C172.77805801 240.63334456 158.90938418 246.30102992 145 251 C143.32744141 251.57041016 143.32744141 251.57041016 141.62109375 252.15234375 C98.36249769 265.68661525 37.23190974 258 0 258 C0 172.86 0 87.72 0 0 Z " transform="translate(103,71)" style="fill: #FDFEFE;"/><path d="M0 0 C7.70075623 -0.04618914 15.4010217 -0.08593145 23.10180664 -0.10986328 C25.71543008 -0.11985186 28.32904255 -0.13344734 30.94262695 -0.15087891 C59.09448701 -0.33378799 59.09448701 -0.33378799 71 2 C72.31085571 2.24967529 72.31085571 2.24967529 73.64819336 2.50439453 C93.51728837 6.65410322 111.56588647 15.45698934 124 32 C126.26437022 35.55447241 128.18046074 39.20067797 130 43 C130.45375 43.93714844 130.9075 44.87429687 131.375 45.83984375 C141.43800875 68.15216969 140.56460136 95.63669028 132.25 118.4375 C124.09983645 139.31005614 109.11898382 152.15552833 89 161 C68.93541755 168.5818062 47.64452158 168.54077832 26.5 168.25 C23.91147243 168.22986845 21.32292943 168.21162966 18.734375 168.1953125 C12.48887145 168.15537961 6.24558702 168.07700039 0 168 C0 153.15 0 138.3 0 123 C6.03667969 122.96132812 6.03667969 122.96132812 12.1953125 122.921875 C15.44409099 122.8901054 18.69277625 122.85445003 21.94148254 122.81620789 C25.34886481 122.77714594 28.75599698 122.74461697 32.16357422 122.72900391 C36.09122928 122.70736791 40.01794483 122.66061035 43.9453125 122.609375 C45.1417337 122.60814636 46.33815491 122.60691772 47.5708313 122.60565186 C59.04897396 122.41056159 73.04270568 120.29742723 81.89453125 112.28515625 C91.09312607 102.50559755 92.58048451 91.41068876 92.3515625 78.41796875 C91.87343943 69.15081875 88.02092214 60.63889546 81.203125 54.33984375 C66.45200264 43.7485379 47.26645078 45.34136076 30.01477051 45.26177979 C26.62167481 45.24194133 23.22884479 45.20021245 19.8359375 45.16015625 C13.22379221 45.08364543 6.61279446 45.04260821 0 45 C0 30.15 0 15.3 0 0 Z " transform="translate(150,116)" style="fill: #244489;"/></svg>