<svg id="svg" version="1.1" xmlns="http://www.w3.org/2000/svg" style="display: block;" viewBox="0 0 100 100"><path d="M0 0 C33 0 66 0 100 0 C100 33 100 66 100 100 C67 100 34 100 0 100 C0 67 0 34 0 0 Z " transform="translate(0,0)" style="fill: #FEFCFC;"/><path d="M0 0 C0 5.61 0 11.22 0 17 C12.54 17 25.08 17 38 17 C36.02 19.31 34.04 21.62 32 24 C31.05406982 25.12011475 30.10813965 26.24022949 29.13354492 27.39428711 C26.36260348 30.09883784 23.9971804 30.70411943 20.06086731 30.75672913 C19.33566391 30.73517258 18.61046051 30.71361603 17.86328125 30.69140625 C17.10202438 30.69003159 16.34076752 30.68865692 15.55644226 30.6872406 C13.9569993 30.67822205 12.35757887 30.65470854 10.75854492 30.61743164 C8.30878748 30.56241663 5.86242215 30.55590457 3.41210938 30.55664062 C1.85413723 30.54190077 0.29618809 30.52441823 -1.26171875 30.50390625 C-1.99299484 30.50056778 -2.72427094 30.49722931 -3.47770691 30.49378967 C-6.38089011 30.41221149 -8.49325675 30.33969623 -10.94335938 28.69726562 C-13.7390839 24.20653622 -13.07858636 17.21236678 -12.51318359 12.09375 C-11.3009482 7.14792187 -5.46997489 0 0 0 Z " transform="translate(37,45)" style="fill: #E21D1D;"/><path d="M0 0 C0.76267181 -0.00004028 1.52534363 -0.00008057 2.31112671 -0.00012207 C3.91648644 0.00522057 5.52184661 0.02274986 7.12695312 0.05175781 C9.5854457 0.0937416 12.04120814 0.09281387 14.5 0.0859375 C16.06251905 0.09642649 17.62502399 0.10936304 19.1875 0.125 C20.28911972 0.12530212 20.28911972 0.12530212 21.41299438 0.12561035 C24.33555151 0.19356179 26.44399239 0.24259662 28.90209961 1.91235352 C31.62699972 6.23939687 31.22510575 12.574395 30.57324219 17.50341797 C28.78214681 23.61799476 22.8462855 27.89294118 17.9609375 31.59375 C17.6309375 31.59375 17.3009375 31.59375 16.9609375 31.59375 C16.9609375 25.32375 16.9609375 19.05375 16.9609375 12.59375 C5.0809375 12.59375 -6.7990625 12.59375 -19.0390625 12.59375 C-17.0590625 10.28375 -15.0790625 7.97375 -13.0390625 5.59375 C-12.25611816 4.63662109 -11.47317383 3.67949219 -10.66650391 2.69335938 C-7.18639054 -0.08762696 -4.2718071 -0.09589374 0 0 Z " transform="translate(45.0390625,24.40625)" style="fill: #E11A19;"/><path d="M0 0 C3.3 0 6.6 0 10 0 C10 0.99 10 1.98 10 3 C7.69 3 5.38 3 3 3 C3 3.66 3 4.32 3 5 C4.65 5 6.3 5 8 5 C8.33 5.99 8.66 6.98 9 8 C7.02 8 5.04 8 3 8 C3 8.99 3 9.98 3 11 C5.31 11 7.62 11 10 11 C10 11.66 10 12.32 10 13 C6.7 13 3.4 13 0 13 C0 8.71 0 4.42 0 0 Z " transform="translate(45,43)" style="fill: #D05C5C;"/></svg>