<svg id="svg" version="1.1" xmlns="http://www.w3.org/2000/svg" style="display: block;" viewBox="0 0 379 376"><path d="M0 0 C125.07 0 250.14 0 379 0 C379 124.08 379 248.16 379 376 C253.93 376 128.86 376 0 376 C0 251.92 0 127.84 0 0 Z " transform="translate(0,0)" style="fill: #FEFEFD;"/><path d="M0 0 C2.06487115 0.46821234 4.12922427 0.9387096 6.19335938 1.41015625 C7.34300171 1.6719165 8.49264404 1.93367676 9.67712402 2.20336914 C31.70171341 7.48357451 52.02339485 18.39111221 70 32 C70.55000703 32.39400718 71.10001406 32.78801435 71.66668797 33.19396114 C73.72288893 35.97918976 73.41653857 38.8798454 73.38768005 42.2091217 C73.39306559 42.94879745 73.39845113 43.6884732 73.40399987 44.45056337 C73.41834333 46.9373434 73.41115953 49.42359582 73.40405273 51.91040039 C73.40975406 53.69129872 73.4167174 55.47219339 73.42485046 57.25308228 C73.442852 62.10372154 73.44159692 66.9541805 73.43590808 71.80484319 C73.43281727 75.86855315 73.43890956 79.93222844 73.44494683 83.99593347 C73.45902178 93.61019254 73.45741438 103.22436289 73.44604492 112.83862305 C73.43464203 122.69769414 73.44849945 132.55649071 73.4754414 142.4155255 C73.49777526 150.9119074 73.50419403 159.40820433 73.49836498 167.90461344 C73.49502618 172.96363172 73.49719809 178.02247542 73.51461601 183.08146858 C73.59575199 209.12130361 73.65210212 235.07507006 65 260 C64.76442383 260.70608398 64.52884766 261.41216797 64.28613281 262.13964844 C58.64582096 278.96150698 51.36422582 294.27153839 40 308 C38.95585937 309.28970703 38.95585937 309.28970703 37.890625 310.60546875 C22.93544576 328.20782388 0.05780208 340.78035526 -23 343 C-24.99983489 343.02569881 -27.00026163 343.03234871 -29 343 C-27.69336719 338.68123473 -25.97150157 334.73734258 -24.0300293 330.68261719 C-18.37223317 318.76668386 -14.41446854 306.52738825 -10.81201172 293.85546875 C-10.14547961 291.51158433 -9.4550594 289.17737702 -8.75390625 286.84375 C-4.95930913 273.25997822 -3.60471545 258.98140028 -2 245 C-1.91620199 244.27842811 -1.83240398 243.55685622 -1.74606663 242.81341851 C-1.09284123 236.81589946 -0.84844434 230.90610204 -0.84178162 224.87594604 C-0.83684364 223.90776699 -0.83190566 222.93958794 -0.82681805 221.94207013 C-0.8115644 218.72554183 -0.80311563 215.5090333 -0.79467773 212.29248047 C-0.78508965 209.97576222 -0.77507903 207.65904568 -0.76467896 205.34233093 C-0.73772461 199.07247293 -0.71666396 192.80260747 -0.69667697 186.5327239 C-0.67475879 179.97306567 -0.64739871 173.41343016 -0.62062073 166.85379028 C-0.57627255 155.85012872 -0.53558362 144.84645773 -0.49731445 133.84277344 C-0.45790203 122.51301157 -0.4164622 111.18326008 -0.37231445 99.85351562 C-0.36959018 99.1541989 -0.36686591 98.45488217 -0.36405908 97.73437403 C-0.35037866 94.2258235 -0.33665857 90.71727313 -0.32291877 87.20872283 C-0.20913102 58.13917053 -0.10235446 29.06959476 0 0 Z " transform="translate(226,18)" style="fill: #62B33A;"/><path d="M0 0 C1.11267986 0.93984567 2.22337708 1.88203885 3.33325195 2.82519531 C3.95198685 3.34962219 4.57072174 3.87404907 5.20820618 4.41436768 C35.85381321 31.53393047 51.67362014 77.18411554 54.18457031 116.92089844 C55.41003238 144.08383833 51.57923207 173.57736838 39 198 C38.39457871 199.25006707 37.79193505 200.50148149 37.19140625 201.75390625 C28.02095974 220.72708699 16.46632426 236.79007963 2 252 C1.12988281 252.94939453 1.12988281 252.94939453 0.2421875 253.91796875 C-11.83874025 266.69704057 -27.42285539 276.1584821 -42.8125 284.375 C-43.58875732 284.79209229 -44.36501465 285.20918457 -45.16479492 285.63891602 C-50.3018624 288.32152778 -55.45027709 290.33533011 -61 292 C-57.93804513 288.73391481 -54.71774719 285.94533563 -51.1875 283.1875 C-26.29314162 263.36013492 -12.92282575 233.34133078 -5.6875 203 C-5.44475342 201.99300049 -5.20200684 200.98600098 -4.9519043 199.94848633 C-1.49094414 184.53637902 -0.70158999 168.88909 -0.68115234 153.14575195 C-0.67181868 151.45823709 -0.66164514 149.77072669 -0.65071106 148.08322144 C-0.62378364 143.57003708 -0.60837448 139.05688321 -0.59528303 134.54364038 C-0.5794864 129.80177894 -0.55275042 125.05997841 -0.5272522 120.31816101 C-0.48075345 111.36920205 -0.44387096 102.42023125 -0.41057932 93.47121447 C-0.37215169 83.27020443 -0.32279674 73.069256 -0.27259517 62.86829817 C-0.16970606 41.91224447 -0.08030795 20.95615163 0 0 Z " transform="translate(311,64)" style="fill: #63B33B;"/><path d="M0 0 C2.17256782 -0.00216919 4.34461292 -0.02029315 6.51708984 -0.03930664 C7.92464022 -0.04224459 9.33219297 -0.0442267 10.73974609 -0.04516602 C12.00254395 -0.0492749 13.2653418 -0.05338379 14.56640625 -0.05761719 C18.57568359 0.18530273 18.57568359 0.18530273 28.57568359 2.18530273 C28.57568359 41.12530273 28.57568359 80.06530273 28.57568359 120.18530273 C-35.11431641 120.18530273 -98.80431641 120.18530273 -164.42431641 120.18530273 C-160.6961586 101.54451369 -148.97575039 79.70277323 -135.42431641 66.18530273 C-134.76431641 66.18530273 -134.10431641 66.18530273 -133.42431641 66.18530273 C-131.97900391 67.68920898 -131.97900391 67.68920898 -130.29931641 69.74780273 C-118.2521564 83.7087682 -102.97994443 91.02379302 -84.55712891 92.49389648 C-67.92640245 93.24168828 -50.29132221 88.45787624 -37.67431641 77.24780273 C-37.08134766 76.6612793 -36.48837891 76.07475586 -35.87744141 75.47045898 C-34.42431641 74.18530273 -34.42431641 74.18530273 -32.42431641 74.18530273 C-32.02792969 73.31325195 -32.02792969 73.31325195 -31.62353516 72.42358398 C-30.37759289 70.09809564 -28.95666478 68.36814169 -27.23681641 66.37280273 C-24.09339306 62.38762586 -21.77642701 58.31114473 -19.61181641 53.74780273 C-19.32218018 53.15185303 -19.03254395 52.55590332 -18.73413086 51.94189453 C-14.92986718 43.61551818 -14.0575779 35.00245584 -14.11181641 25.93530273 C-14.11310547 25.03013916 -14.11439453 24.12497559 -14.11572266 23.19238281 C-14.22404284 15.55784081 -15.34463815 8.55082991 -17.42431641 1.18530273 C-11.83356739 -0.56891507 -5.80151019 -0.00064792 0 0 Z " transform="translate(185.42431640625,13.814697265625)" style="fill: #62B33A;"/><path d="M0 0 C11.22 0 22.44 0 34 0 C34.08021762 19.16309779 34.08021762 19.16309779 34.09765625 27.4609375 C34.10951749 33.0778389 34.12340115 38.69467387 34.15087891 44.31152344 C34.17293864 48.85032112 34.18463677 53.38904735 34.18975449 57.92789459 C34.19339185 59.64184949 34.20049007 61.35580139 34.21146011 63.06972504 C34.46702387 104.73363963 26.39591013 150.20080139 4 186 C2.02 187.98 2.02 187.98 0 190 C0 127.3 0 64.6 0 0 Z " transform="translate(180,174)" style="fill: #62B33A;"/><path d="M0 0 C10.23 0 20.46 0 31 0 C31 38.28 31 76.56 31 116 C27.18572479 112.18572479 25.26897061 110.18454227 22.9140625 105.7109375 C22.379021 104.69644531 21.84397949 103.68195313 21.29272461 102.63671875 C20.46720093 101.02216797 20.46720093 101.02216797 19.625 99.375 C18.76563843 97.70244141 18.76563843 97.70244141 17.88891602 95.99609375 C10.44492336 81.24539302 5.03654909 66.25804514 2 50 C1.82049805 49.10224854 1.64099609 48.20449707 1.45605469 47.27954102 C-0.31929837 37.40316118 -0.22746519 27.67978902 -0.125 17.6875 C-0.11494213 15.96419796 -0.10582128 14.24089018 -0.09765625 12.51757812 C-0.07760441 8.34478992 -0.03841981 4.17281859 0 0 Z " transform="translate(12,174)" style="fill: #62B33A;"/><path d="M0 0 C0.66 0.33 1.32 0.66 2 1 C1.77734375 2.85546875 1.77734375 2.85546875 1 5 C-0.99609375 6.30078125 -0.99609375 6.30078125 -3.4375 7.3125 C-4.24058594 7.65925781 -5.04367188 8.00601562 -5.87109375 8.36328125 C-8 9 -8 9 -10 8 C-6.7 5.36 -3.4 2.72 0 0 Z " transform="translate(260,347)" style="fill: #75BC52;"/></svg>