<?xml version="1.0" encoding="utf-8"?>
<!-- Generator: Adobe Illustrator 19.0.0, SVG Export Plug-In . SVG Version: 6.00 Build 0)  -->
<svg version="1.1" id="layer" xmlns="http://www.w3.org/2000/svg" xmlns:xlink="http://www.w3.org/1999/xlink" x="0px" y="0px"
	 viewBox="-153 -46 652 652" style="enable-background:new -153 -46 652 652;" xml:space="preserve">
<style type="text/css">
	.st0{fill-rule:evenodd;clip-rule:evenodd;}
	.st1{fill:none;stroke:#000000;stroke-width:2.4278;stroke-miterlimit:3.864;}
	.st2{fill-rule:evenodd;clip-rule:evenodd;fill:#E30613;}
</style>
<path class="st0" d="M154.1,35.7c-0.1,0.6,0.9,0.7,0.6,1.4c-4.5,0.6-7.6-3.7-11.6-5.1c-11.3-5.9-22.3-5.1-39.2-2.5
	c-0.1-1.3,11.5-3.9,18-4C135.4,25.2,145.2,28.1,154.1,35.7"/>
<path class="st1" d="M154.1,35.7c-0.1,0.6,0.9,0.7,0.6,1.4c-4.5,0.6-7.6-3.7-11.6-5.1c-11.3-5.9-22.3-5.1-39.2-2.5
	c-0.1-1.3,11.5-3.9,18-4C135.4,25.2,145.2,28.1,154.1,35.7z"/>
<path class="st0" d="M130.7,44.4l-0.6,0.6c-6.2-2.3-11.8-6.9-19.5-5.1c-7.8,3.1-13.2,4.4-25.4,1.7C70.6,44.3,66.4,64,57.2,69
	c-11,10.4-26.7,12.1-33,31c-1.7,4.5-1.7,10.1-2.9,15c-1.5,12.1,0.7,26.1-5,37.2c0.4,1.8-3.5,8.9-5.4,12.7c-1.8,2-2.2,5.5-4.5,7.3
	c-0.4,2-2.4,4.1-3,6.1c-4.7,7.1-4.4,15.7-4,24.9c0.3,3.7,1.4,7.9,2.3,11.8c1.5,5.9,4.7,11.4,5.9,16.3c0.6,2.5,0.6,4.7,0.9,7.1
	c-0.3,4.4-0.2,9-2.3,12.7c-0.4,4.5-4.1,7.5-4.8,11.8c-0.9,1.3-1.7,2.7-1.7,4.5c-2.3,6.3-1.7,10.5,0,15.8l0,0.9
	c0.1,0.8-0.3,0.3-2.4-1.7l-1.3-8.2l0.9-6.4c3-8.5,7.7-16.1,9-25.7c1.1-8.4-3.2-15.4-5.3-22.6c-1.6-6.2-4.2-11.5-3.7-18.3
	c-0.8-10.5,0.5-20.4,6.5-27.9c0,0,7.8-11.3,10.5-19.3c2.1-4.2,3.5-12.5,4.1-18c0.5-12.5,0-24.8,4.2-38.4
	C30,77.2,53.4,76.3,63.4,58.5c4.4-8.2,12-18.3,21.4-18.9c11.4,1.2,17.2,1.9,24.3-1.1C117.3,36.3,126.6,40.2,130.7,44.4"/>
<path class="st1" d="M130.7,44.4l-0.6,0.6c-6.2-2.3-11.8-6.9-19.5-5.1c-7.8,3.1-13.2,4.4-25.4,1.7C70.6,44.3,66.4,64,57.2,69
	c-11,10.4-26.7,12.1-33,31c-1.7,4.5-1.7,10.1-2.9,15c-1.5,12.1,0.7,26.1-5,37.2c0.4,1.8-3.5,8.9-5.4,12.7c-1.8,2-2.2,5.5-4.5,7.3
	c-0.4,2-2.4,4.1-3,6.1c-4.7,7.1-4.4,15.7-4,24.9c0.3,3.7,1.4,7.9,2.3,11.8c1.5,5.9,4.7,11.4,5.9,16.3c0.6,2.5,0.6,4.7,0.9,7.1
	c-0.3,4.4-0.2,9-2.3,12.7c-0.4,4.5-4.1,7.5-4.8,11.8c-0.9,1.3-1.7,2.7-1.7,4.5c-2.3,6.3-1.7,10.5,0,15.8l0,0.9
	c0.1,0.8-0.3,0.3-2.4-1.7l-1.3-8.2l0.9-6.4c3-8.5,7.7-16.1,9-25.7c1.1-8.4-3.2-15.4-5.3-22.6c-1.6-6.2-4.2-11.5-3.7-18.3
	c-0.8-10.5,0.5-20.4,6.5-27.9c0,0,7.8-11.3,10.5-19.3c2.1-4.2,3.5-12.5,4.1-18c0.5-12.5,0-24.8,4.2-38.4
	C30,77.2,53.4,76.3,63.4,58.5c4.4-8.2,12-18.3,21.4-18.9c11.4,1.2,17.2,1.9,24.3-1.1C117.3,36.3,126.6,40.2,130.7,44.4z"/>
<path class="st0" d="M192.5,74.9c1.9-1.7,3.1-4.2,5.6-4.8c-1.3,2.4-3.3,3.9-4.8,6.8c9.6,14.9,15.7,31.1,20.6,47.9
	c6.8,26.4,10.8,53.3,13,81.2c-0.3,0.8-0.6,2-1.7,2c-3.3-29.7-6.1-59.8-15-88c-4.2-14.7-10.2-28.7-17.8-42c-8.2,12.1-6.5,28.9-3.6,43
	c2.8,14.7,7.6,26.1,14.1,38c-3.8,2.1-7.9,5.1-11.8,5.1v-0.6l9.4-4.9c-0.4-1.7-3.2-5.8-4.6-9.1c-8.4-17.5-17.1-55.7-4.2-72.6
	c-6.5-11.5-15.4-21.9-24.8-32.2l0.3-0.8C176.6,53,185.2,64,192.5,74.9"/>
<path class="st1" d="M192.5,74.9c1.9-1.7,3.1-4.2,5.6-4.8c-1.3,2.4-3.3,3.9-4.8,6.8c9.6,14.9,15.7,31.1,20.6,47.9
	c6.8,26.4,10.8,53.3,13,81.2c-0.3,0.8-0.6,2-1.7,2c-3.3-29.7-6.1-59.8-15-88c-4.2-14.7-10.2-28.7-17.8-42c-8.2,12.1-6.5,28.9-3.6,43
	c2.8,14.7,7.6,26.1,14.1,38c-3.8,2.1-7.9,5.1-11.8,5.1v-0.6l9.4-4.9c-0.4-1.7-3.2-5.8-4.6-9.1c-8.4-17.5-17.1-55.7-4.2-72.6
	c-6.5-11.5-15.4-21.9-24.8-32.2l0.3-0.8C176.6,53,185.2,64,192.5,74.9z"/>
<path class="st0" d="M100.6,65.9c-1.9,0.6-3.7,1.1-5.6,1.7c-9.2,3.2-17.3,7.2-22.8,17.5c-4.8,8.1-1.8,15.1-15.8,24.6
	c-13.2,5.6-26.5,17.8-26.5,33.3c-0.6,7-0.1,13.2,0.6,20c-0.1,8.4-8.3,11-11.8,20.3c-0.7,3-0.7,4.6-1.7,6.2
	c-0.4-7.3,3.2-14.5,9.1-19.3c5.6-6.6,1.1-14.4,1.7-22.4c-1.8-15.9,9.5-30.1,23.1-36.9c9.4-4,15.4-13.5,17.8-23.1
	c2.6-6.3,6.3-11.1,12.1-15.5c5.6-3.3,11.8-5.5,18-7.3C99.4,64.8,100,65.2,100.6,65.9"/>
<path class="st1" d="M100.6,65.9c-1.9,0.6-3.7,1.1-5.6,1.7c-9.2,3.2-17.3,7.2-22.8,17.5c-4.8,8.1-1.8,15.1-15.8,24.6
	c-13.2,5.6-26.5,17.8-26.5,33.3c-0.6,7-0.1,13.2,0.6,20c-0.1,8.4-8.3,11-11.8,20.3c-0.7,3-0.7,4.6-1.7,6.2
	c-0.4-7.3,3.2-14.5,9.1-19.3c5.6-6.6,1.1-14.4,1.7-22.4c-1.8-15.9,9.5-30.1,23.1-36.9c9.4-4,15.4-13.5,17.8-23.1
	c2.6-6.3,6.3-11.1,12.1-15.5c5.6-3.3,11.8-5.5,18-7.3C99.4,64.8,100,65.2,100.6,65.9z"/>
<path class="st0" d="M102.6,90.7C89.7,95.2,73.4,100.8,69,116c-1.4,8-0.6,14.3-8.8,22.3c-9.9,7.3-21.9,13.2-20,31
	c1.9,6.8,2.8,16.4-2,22.3c-5.6,7.3-6.9,7.5-16.6,19.1c-3.1,4.7-4.9,12.1-5.1,17.3c0.7,17.3,10.1,29.5,1.1,42.6
	c-7.3,9.5-10.3,22.6-5.1,35.5c5.7,10.8,17.5,19.5,11.4,32.3c0,0,1.4-3.5-1.2-10.9c-5.8-12-16.6-22.2-15.5-36.7
	c-0.3-7.2,4.1-16.3,8.6-23c2.2-3.3,3.2-6.5,3.2-6.5c0.9-14.5-3.2-12-5.1-31.4c0.3-6,1.1-7.5,1.7-10.7c1.1-2.8,1.8-6.6,4.8-9.6
	c5.9-8.5,18.3-15.4,18.6-26.8c0.6-4.7,0.6-6.4-0.4-10.9c-1.6-10.9,1.5-23.3,12.7-29.4c6.3-3.8,14.1-11.6,14.5-20.3
	c0.4-9.2,4.7-18.8,13.2-23.7c6.1-4,13-5.9,19.5-9C100.3,89,101.1,90.6,102.6,90.7"/>
<path class="st1" d="M102.6,90.7C89.7,95.2,73.4,100.8,69,116c-1.4,8-0.6,14.3-8.8,22.3c-9.9,7.3-21.9,13.2-20,31
	c1.9,6.8,2.8,16.4-2,22.3c-5.6,7.3-6.9,7.5-16.6,19.1c-3.1,4.7-4.9,12.1-5.1,17.3c0.7,17.3,10.1,29.5,1.1,42.6
	c-7.3,9.5-10.3,22.6-5.1,35.5c5.7,10.8,17.5,19.5,11.4,32.3c0,0,1.4-3.5-1.2-10.9c-5.8-12-16.6-22.2-15.5-36.7
	c-0.3-7.2,4.1-16.3,8.6-23c2.2-3.3,3.2-6.5,3.2-6.5c0.9-14.5-3.2-12-5.1-31.4c0.3-6,1.1-7.5,1.7-10.7c1.1-2.8,1.8-6.6,4.8-9.6
	c5.9-8.5,18.3-15.4,18.6-26.8c0.6-4.7,0.6-6.4-0.4-10.9c-1.6-10.9,1.5-23.3,12.7-29.4c6.3-3.8,14.1-11.6,14.5-20.3
	c0.4-9.2,4.7-18.8,13.2-23.7c6.1-4,13-5.9,19.5-9C100.3,89,101.1,90.6,102.6,90.7z"/>
<path class="st0" d="M333.4,102.6c1.1-1,3.2-2,4.6-1.2c-0.9,2.3-6,0.7-3.4,5.6c0.2,0.5-0.3,0.8-0.6,1.1l-2.3-2.8
	c-1.6,0.1-2.5,3.2-4.2,1.4c0.3-1.7,4-2.3,2.8-4.5c-0.6-0.6-1.2-1.5-0.6-2.3C332.3,99,330.4,103.6,333.4,102.6"/>
<path class="st1" d="M333.4,102.6c1.1-1,3.2-2,4.6-1.2c-0.9,2.3-6,0.7-3.4,5.6c0.2,0.5-0.3,0.8-0.6,1.1l-2.3-2.8
	c-1.6,0.1-2.5,3.2-4.2,1.4c0.3-1.7,4-2.3,2.8-4.5c-0.6-0.6-1.2-1.5-0.6-2.3C332.3,99,330.4,103.6,333.4,102.6z"/>
<path class="st0" d="M382,100.5c-0.1,0.3,0.1,0.4,0.3,0.6c-0.9,1.3-2.4,0.9-3.7,1.4l-0.3,3.9c-0.3-0.1-0.4,0.1-0.6,0.3
	c-0.9-0.8-0.7-1.9-1.1-2.8c-2-1.2-3.9,1.3-5.6,0c-0.7-1.8,4.5-1.1,5.3-3.4C375,93.2,377.5,100.7,382,100.5"/>
<path class="st1" d="M382,100.5c-0.1,0.3,0.1,0.4,0.3,0.6c-0.9,1.3-2.4,0.9-3.7,1.4l-0.3,3.9c-0.3-0.1-0.4,0.1-0.6,0.3
	c-0.9-0.8-0.7-1.9-1.1-2.8c-2-1.2-3.9,1.3-5.6,0c-0.7-1.8,4.5-1.1,5.3-3.4C375,93.2,377.5,100.7,382,100.5z"/>
<path class="st0" d="M154.7,101.1c-0.1,1,1.3,0.5-1.7,1.1c-13.6,2.5-25.7,8.5-36.7,17.5c-1,0.1-2-0.1-2.2-1.1c2-2.9,4.8-4.5,7.6-6.5
	C133.7,105,151,100.8,154.7,101.1"/>
<path class="st1" d="M154.7,101.1c-0.1,1,1.3,0.5-1.7,1.1c-13.6,2.5-25.7,8.5-36.7,17.5c-1,0.1-2-0.1-2.2-1.1c2-2.9,4.8-4.5,7.6-6.5
	C133.7,105,151,100.8,154.7,101.1z"/>
<path class="st0" d="M155.8,114.1c-0.1,0.8-0.9,0.8-1.4,1.1c-9.9,1.1-18.5,8.1-26.5,14c-0.3,0.1,0.4-1.2,0.2-1.3
	C135.9,120.3,145.1,114.9,155.8,114.1"/>
<path class="st1" d="M155.8,114.1c-0.1,0.8-0.9,0.8-1.4,1.1c-9.9,1.1-18.5,8.1-26.5,14c-0.3,0.1,0.4-1.2,0.2-1.3
	C135.9,120.3,145.1,114.9,155.8,114.1z"/>
<path class="st0" d="M158.1,121.4c-10.7-0.5-16.7,4.6-23.1,10.7v0.6c8.7,1.4,21.3-0.2,29-7.3c-1.3,1.8-3,4.2-5.1,5.6
	c-8,6.2-19.5,6-28.8,2.5c7.8-7.2,17.6-16.4,27.9-12.4V121.4z"/>
<path class="st1" d="M158.1,121.4c-10.7-0.5-16.7,4.6-23.1,10.7v0.6c8.7,1.4,21.3-0.2,29-7.3c-1.3,1.8-3,4.2-5.1,5.6
	c-8,6.2-19.5,6-28.8,2.5c7.8-7.2,17.6-16.4,27.9-12.4V121.4z"/>
<path class="st0" d="M276.2,122.5c1.5-0.2,3.2-0.8,4.5-0.6c-0.5,1.4-2.7,1.1-3.7,2.5c-0.4,1.7,0.9,4.6-1.1,5.1
	c-1.6-1.6,1.1-5.1-4.5-3.9l-0.9-0.9c0.8-1.4,2.4-0.7,3.4-1.7c0.5-1.1-1-2,0.3-2.8C276.1,119.8,275.2,121.9,276.2,122.5"/>
<path class="st1" d="M276.2,122.5c1.5-0.2,3.2-0.8,4.5-0.6c-0.5,1.4-2.7,1.1-3.7,2.5c-0.4,1.7,0.9,4.6-1.1,5.1
	c-1.6-1.6,1.1-5.1-4.5-3.9l-0.9-0.9c0.8-1.4,2.4-0.7,3.4-1.7c0.5-1.1-1-2,0.3-2.8C276.1,119.8,275.2,121.9,276.2,122.5z"/>
<path class="st0" d="M354.6,123.7c1.5,0,3.2-1.3,4.5,0c-1,1.4-2.7,0.9-4.2,1.1l-0.3,3.7c-0.9,0.4-1.5-0.6-1.7-1.1
	c0.9-2.9-2.4-1.5-3.7-2.3H349c0.1-1.5,2.1-0.9,3.1-1.4c0.8-0.8-0.2-1.5-0.3-2.3c0.1-0.5,0.7-1.3,1.4-1.1
	C354.1,121.2,353.7,122.7,354.6,123.7"/>
<path class="st1" d="M354.6,123.7c1.5,0,3.2-1.3,4.5,0c-1,1.4-2.7,0.9-4.2,1.1l-0.3,3.7c-0.9,0.4-1.5-0.6-1.7-1.1
	c0.9-2.9-2.4-1.5-3.7-2.3H349c0.1-1.5,2.1-0.9,3.1-1.4c0.8-0.8-0.2-1.5-0.3-2.3c0.1-0.5,0.7-1.3,1.4-1.1
	C354.1,121.2,353.7,122.7,354.6,123.7z"/>
<path class="st0" d="M306.7,122.8c0.9,1.9-4.1,3.9-0.3,5.4v0.8c-0.9,0.5-2.1-0.9-3.1-0.3c-0.9,1.1-2,2.7-3.4,3.1
	c-0.9-0.4-0.6-1.5-0.3-2c0.6-0.9,2-1.3,1.7-2.5c-0.7-0.9-2.3-0.5-2.3-2c1.1-2.1,2.5,0.4,4,0C304.2,124.5,305.1,123,306.7,122.8"/>
<path class="st1" d="M306.7,122.8c0.9,1.9-4.1,3.9-0.3,5.4v0.8c-0.9,0.5-2.1-0.9-3.1-0.3c-0.9,1.1-2,2.7-3.4,3.1
	c-0.9-0.4-0.6-1.5-0.3-2c0.6-0.9,2-1.3,1.7-2.5c-0.7-0.9-2.3-0.5-2.3-2c1.1-2.1,2.5,0.4,4,0C304.2,124.5,305.1,123,306.7,122.8z"/>
<path class="st0" d="M388.6,137.5c1.6,1.7-2.1,4.4,0.7,5.3c1,0.5,2.4,0.8,3.6,0.9c0.6,1-1,1-1.7,1.4c-1.4,0.3-4-2-4.2,0.9
	c-0.3,0.3-1.3,1.7-1.8,1.7c-0.9-0.5,0.2-3.4,0.6-4.1c-1.5-0.8-3.9-0.6-4.6-2.2c2.3-0.9,6.2,2.1,5.7-2.2
	C387.5,139,388.1,137.5,388.6,137.5"/>
<path class="st1" d="M388.6,137.5c1.6,1.7-2.1,4.4,0.7,5.3c1,0.5,2.4,0.8,3.6,0.9c0.6,1-1,1-1.7,1.4c-1.4,0.3-4-2-4.2,0.9
	c-0.3,0.3-1.3,1.7-1.8,1.7c-0.9-0.5,0.2-3.4,0.6-4.1c-1.5-0.8-3.9-0.6-4.6-2.2c2.3-0.9,6.2,2.1,5.7-2.2
	C387.5,139,388.1,137.5,388.6,137.5z"/>
<path class="st0" d="M76,142c-1.9,6.3-5.7,12.9-4.6,24.6c0.2,3.3,2.5,16-6.9,26.7c-4.4,5.1-6.2,8.8-10.1,15.8
	c-1.7,3.5-5.1,10.1-5.9,16.4c-1.2,15.8,4.3,18.8,7.4,28.7c2.8,6.3-0.6,15-4.2,21.7c-1.7,5.6-4.9,9.6-5.3,16.9
	c3.9,17.2,24.1,33.5,9.3,52.7c-2.5,2.6-5.2,5.4-8.5,5.1c0.1-0.3-0.1-0.4-0.3-0.6c6.4-2.9,10.4-9,11-15.8
	c0.9-15.7-10.9-26.7-13.8-41.2c-0.4-12.2,7.2-18.1,9.3-29.6c1.4-4.1-0.5-8.8-4.5-18.6c-3.3-7.8-3.6-18-1.2-25.7
	c4.9-17.9,16.2-27.5,19.6-35.1c1.8-5,1.6-6.3,2.2-8.6c0,0,0.2-4.9-0.2-14.1c0.3-6.8,2.2-11.9,4.5-16.7C74.7,144,75,142.3,76,142"/>
<path class="st1" d="M76,142c-1.9,6.3-5.7,12.9-4.6,24.6c0.2,3.3,2.5,16-6.9,26.7c-4.4,5.1-6.2,8.8-10.1,15.8
	c-1.7,3.5-5.1,10.1-5.9,16.4c-1.2,15.8,4.3,18.8,7.4,28.7c2.8,6.3-0.6,15-4.2,21.7c-1.7,5.6-4.9,9.6-5.3,16.9
	c3.9,17.2,24.1,33.5,9.3,52.7c-2.5,2.6-5.2,5.4-8.5,5.1c0.1-0.3-0.1-0.4-0.3-0.6c6.4-2.9,10.4-9,11-15.8
	c0.9-15.7-10.9-26.7-13.8-41.2c-0.4-12.2,7.2-18.1,9.3-29.6c1.4-4.1-0.5-8.8-4.5-18.6c-3.3-7.8-3.6-18-1.2-25.7
	c4.9-17.9,16.2-27.5,19.6-35.1c1.8-5,1.6-6.3,2.2-8.6c0,0,0.2-4.9-0.2-14.1c0.3-6.8,2.2-11.9,4.5-16.7C74.7,144,75,142.3,76,142z"/>
<path class="st0" d="M282.2,144.2c0.1,3.3,0.5,6.5,1.1,9.6c3.4-1,5.9-8.7,9.9-5.3v1.1c-2.3,3-5.8,4.4-7.6,7.3
	c3.6,1.7,7.7,2.2,11,4.5c-0.1,1-0.8,2.4-2,2.5c-1.1-0.3-6.3-1.8-9.6-3.1c-0.6-0.1-1,0.1-1.4,0.6c0.4,3.9,2.3,8.5,0,12.1
	c-1.2,0.1-2.7,0.1-3.1-1.1c0.1-3.1-0.1-6.8-0.9-9.9c-2.9,0.6-5,5.3-7.9,3.4c-0.5-2.6,5.4-4.4,6.2-7.3c0-1.6-10.6-1.4-8.7-7
	c3.5,0.6,6.8,2,10.2,3.1l0.6-0.9c-0.1-3.2-2-5.9-1.7-9.3C279,143.1,281.6,142.3,282.2,144.2"/>
<path class="st1" d="M282.2,144.2c0.1,3.3,0.5,6.5,1.1,9.6c3.4-1,5.9-8.7,9.9-5.3v1.1c-2.3,3-5.8,4.4-7.6,7.3
	c3.6,1.7,7.7,2.2,11,4.5c-0.1,1-0.8,2.4-2,2.5c-1.1-0.3-6.3-1.8-9.6-3.1c-0.6-0.1-1,0.1-1.4,0.6c0.4,3.9,2.3,8.5,0,12.1
	c-1.2,0.1-2.7,0.1-3.1-1.1c0.1-3.1-0.1-6.8-0.9-9.9c-2.9,0.6-5,5.3-7.9,3.4c-0.5-2.6,5.4-4.4,6.2-7.3c0-1.6-10.6-1.4-8.7-7
	c3.5,0.6,6.8,2,10.2,3.1l0.6-0.9c-0.1-3.2-2-5.9-1.7-9.3C279,143.1,281.6,142.3,282.2,144.2z"/>
<path class="st0" d="M316.8,150.3c-0.6,2,4.2,0.4,3.2,2c-0.2,1.7-2.5,0.3-3.5,1c-1,1.6,0.6,3.8-1.1,4.6c-0.5-0.1-1.2-1.1-1.1-5.1
	c-1.5,0.1-2.8-0.1-3.9-0.9c-0.8-2.2,6.2,1.3,4.9-4.3C317.5,146.3,316.7,149.5,316.8,150.3"/>
<path class="st1" d="M316.8,150.3c-0.6,2,4.2,0.4,3.2,2c-0.2,1.7-2.5,0.3-3.5,1c-1,1.6,0.6,3.8-1.1,4.6c-0.5-0.1-1.2-1.1-1.1-5.1
	c-1.5,0.1-2.8-0.1-3.9-0.9c-0.8-2.2,6.2,1.3,4.9-4.3C317.5,146.3,316.7,149.5,316.8,150.3z"/>
<path class="st0" d="M358.6,159.2c1.5,1.8-1.7,3.2,0,4.8c1.5-0.1,3-0.1,3.9,1.1c-1.5,2-4.3-0.5-6.2,1.1c-0.1,1.9-0.3,3.7-1.4,5.1
	c-1.5-0.8-0.8-3.4-0.6-4.8c0.5-0.4,0.2-1.1,0.3-1.7c-0.9-1.1-2.8-1.1-3.1-2.5c1.3-1.2,4.4,2.6,4.8-1.1
	C356.4,160.2,357.4,159,358.6,159.2"/>
<path class="st1" d="M358.6,159.2c1.5,1.8-1.7,3.2,0,4.8c1.5-0.1,3-0.1,3.9,1.1c-1.5,2-4.3-0.5-6.2,1.1c-0.1,1.9-0.3,3.7-1.4,5.1
	c-1.5-0.8-0.8-3.4-0.6-4.8c0.5-0.4,0.2-1.1,0.3-1.7c-0.9-1.1-2.8-1.1-3.1-2.5c1.3-1.2,4.4,2.6,4.8-1.1
	C356.4,160.2,357.4,159,358.6,159.2z"/>
<path class="st0" d="M87,160c-1.7,1.2-2.3-0.1-5.1,1.1c-2.9,2.3-2.8,4.2-3.1,6.8c1.2,8.1,6.5,15.4,13.1,19.5c3.4,3,7.6,5.8,12,6.1
	c-4.1,2.6-9.1-2.2-11-3.1c-8.2-5.8-16.6-14.8-16.1-25.4c0.8-3.6,3.5-5.1,6.2-5.3C84.4,159.8,85.9,159.5,87,160"/>
<path class="st1" d="M87,160c-1.7,1.2-2.3-0.1-5.1,1.1c-2.9,2.3-2.8,4.2-3.1,6.8c1.2,8.1,6.5,15.4,13.1,19.5c3.4,3,7.6,5.8,12,6.1
	c-4.1,2.6-9.1-2.2-11-3.1c-8.2-5.8-16.6-14.8-16.1-25.4c0.8-3.6,3.5-5.1,6.2-5.3C84.4,159.8,85.9,159.5,87,160z"/>
<path class="st0" d="M210.6,170.6c0.6,1.1-4.2,4.7-7.1,6.1c-6.9,3.4-16.8,5.7-21.1,4.2c3.7-1,9.8-4,14.1-7.3c5.3,1.3,5.2-2.5,8-2.4
	L210.6,170.6z"/>
<path class="st1" d="M210.6,170.6c0.6,1.1-4.2,4.7-7.1,6.1c-6.9,3.4-16.8,5.7-21.1,4.2c3.7-1,9.8-4,14.1-7.3c5.3,1.3,5.2-2.5,8-2.4
	L210.6,170.6z"/>
<path class="st0" d="M311,174.8c1.3-0.6,2-4,3.1-2.4c-1.1,3-2.8,2.6-0.6,6.4c-2.8-1,1.8,3-3.1-1.3c-1.3,0.2-2.9,2.9-3.7,1.1
	c-0.7-1.5,3.6-2.5,1.7-4.2c-0.9-0.3-2-2.1-1.1-2.3C308.8,171.9,309.9,174.1,311,174.8"/>
<path class="st1" d="M311,174.8c1.3-0.6,2-4,3.1-2.4c-1.1,3-2.8,2.6-0.6,6.4c-2.8-1,1.8,3-3.1-1.3c-1.3,0.2-2.9,2.9-3.7,1.1
	c-0.7-1.5,3.6-2.5,1.7-4.2c-0.9-0.3-2-2.1-1.1-2.3C308.8,171.9,309.9,174.1,311,174.8z"/>
<path class="st0" d="M264.7,181.2c-0.4,0.6-1.3,0.9-1.1,1.7c2.2,0.6,2.1,0.9,2.5,2c-1.8,0.9-3.6-2.5-5.3,1.4c-0.6,0.8-1.3,1-2,0.3
	c-0.1-1.8,3.2-3,2-3.7l-1.7-1.7c1.1-1.6,1.9,0.6,3.1,0.3l2.3-2.3C265.3,179.3,265,180.7,264.7,181.2"/>
<path class="st1" d="M264.7,181.2c-0.4,0.6-1.3,0.9-1.1,1.7c2.2,0.6,2.1,0.9,2.5,2c-1.8,0.9-3.6-2.5-5.3,1.4c-0.6,0.8-1.3,1-2,0.3
	c-0.1-1.8,3.2-3,2-3.7l-1.7-1.7c1.1-1.6,1.9,0.6,3.1,0.3l2.3-2.3C265.3,179.3,265,180.7,264.7,181.2z"/>
<path class="st0" d="M209.4,182c-0.4,2.1-3.1,3.5-4.8,4.8c-5.4,2.9-13.7,3.2-18.9-0.3C194.5,188.9,202.2,185.2,209.4,182"/>
<path class="st1" d="M209.4,182c-0.4,2.1-3.1,3.5-4.8,4.8c-5.4,2.9-13.7,3.2-18.9-0.3C194.5,188.9,202.2,185.2,209.4,182z"/>
<path class="st0" d="M288.3,184.2c0,2.4,0.3,4.8,4.2,3.8c0.3-0.1,0.5,0.9,0.6,1c-0.9,0.9-2.8,0.5-3.9,1.4c-0.5,1.4,1,2.6-0.3,3.7
	c-0.6,0.1-1.1-0.1-1.4-0.6c-0.2-1.1,0.5-2.4-0.6-3.1c-1.4,0.2-4,0.6-3.7-0.6c-1.4-2,4.2,0.8,3.7-2.1
	C286.5,186.8,286.9,184,288.3,184.2"/>
<path class="st1" d="M288.3,184.2c0,2.4,0.3,4.8,4.2,3.8c0.3-0.1,0.5,0.9,0.6,1c-0.9,0.9-2.8,0.5-3.9,1.4c-0.5,1.4,1,2.6-0.3,3.7
	c-0.6,0.1-1.1-0.1-1.4-0.6c-0.2-1.1,0.5-2.4-0.6-3.1c-1.4,0.2-4,0.6-3.7-0.6c-1.4-2,4.2,0.8,3.7-2.1
	C286.5,186.8,286.9,184,288.3,184.2z"/>
<path class="st0" d="M287.5,209.4c0.3,6.5,1.1,20,0.3,29.9c-1.1,15.6-4,30.3-9,44.3c4.6-3,6.1-3.7,9.3-5.4c6.8-4.3,8.1-3.4,12.6-7.3
	c0.1-1.1-1.3-2.7-1.4-4.2c-4.2-8.6-7.9-18.1-9.3-27.6c-0.9-6.3-1.3-13.2,2.5-19c2.2-1.7,0.8-0.8,1.2-0.5c-5.7,11.3-2,24.5,3.7,39.2
	c2.4,5.6,4.8,9.3,5.4,12.1h0.3c-8.2,6.3-17.8,10.1-26.2,16.4c-0.6,2.1-1.1,3.9-2.6,7.4c-0.6,0.5-5.1,15.1-8.1,21.9
	c-3.3,8.4-10.6,34-12.7,43.7c-2.6,10.2-5,23.1-5.9,34.4c-1.5,17.6-5.9,23.5-3.2,2.2c1.6-22.3,8.1-44.1,13.9-64.5
	c5.6-19.1,14.2-38.3,15.2-41.2l0.4-1.7c0.7-0.4-0.6,1.1-6.7,5.2c-3.7,2.7-6.9,5.4-10.1,8.7c2.4-3,2.9-5.4,6-7.9l1.6-1.4
	c4.6-3.9,7.2-5.4,11-9c1.6-6.5,4.6-12.4,6.2-18.9c3.2-11.5,5.8-41.1,3.8-54.8l-0.4-3.5C284.6,205.7,286.9,208.7,287.5,209.4"/>
<path class="st1" d="M287.5,209.4c0.3,6.5,1.1,20,0.3,29.9c-1.1,15.6-4,30.3-9,44.3c4.6-3,6.1-3.7,9.3-5.4c6.8-4.3,8.1-3.4,12.6-7.3
	c0.1-1.1-1.3-2.7-1.4-4.2c-4.2-8.6-7.9-18.1-9.3-27.6c-0.9-6.3-1.3-13.2,2.5-19c2.2-1.7,0.8-0.8,1.2-0.5c-5.7,11.3-2,24.5,3.7,39.2
	c2.4,5.6,4.8,9.3,5.4,12.1h0.3c-8.2,6.3-17.8,10.1-26.2,16.4c-0.6,2.1-1.1,3.9-2.6,7.4c-0.6,0.5-5.1,15.1-8.1,21.9
	c-3.3,8.4-10.6,34-12.7,43.7c-2.6,10.2-5,23.1-5.9,34.4c-1.5,17.6-5.9,23.5-3.2,2.2c1.6-22.3,8.1-44.1,13.9-64.5
	c5.6-19.1,14.2-38.3,15.2-41.2l0.4-1.7c0.7-0.4-0.6,1.1-6.7,5.2c-3.7,2.7-6.9,5.4-10.1,8.7c2.4-3,2.9-5.4,6-7.9l1.6-1.4
	c4.6-3.9,7.2-5.4,11-9c1.6-6.5,4.6-12.4,6.2-18.9c3.2-11.5,5.8-41.1,3.8-54.8l-0.4-3.5C284.6,205.7,286.9,208.7,287.5,209.4z"/>
<path class="st0" d="M220.1,212.5c-20.5,8.8-36.2,13.9-65.6,16.1l-2.6-1.1c13.3-0.2,26.7-2.8,41.1-6.6
	C203.3,217.9,210.8,214.4,220.1,212.5"/>
<path class="st1" d="M220.1,212.5c-20.5,8.8-36.2,13.9-65.6,16.1l-2.6-1.1c13.3-0.2,26.7-2.8,41.1-6.6
	C203.3,217.9,210.8,214.4,220.1,212.5z"/>
<path class="st0" d="M312.9,263.5c1.1,2.3,1.7,4.9,2.5,7.3c-7.9-10.5-15.5-34.8-16.4-38.9c-1.1-4.2-1.2-8.2-1.1-12.7
	C301.4,234.6,306.3,249.7,312.9,263.5"/>
<path class="st1" d="M312.9,263.5c1.1,2.3,1.7,4.9,2.5,7.3c-7.9-10.5-15.5-34.8-16.4-38.9c-1.1-4.2-1.2-8.2-1.1-12.7
	C301.4,234.6,306.3,249.7,312.9,263.5z"/>
<path class="st0" d="M360,225.7c-2,8-6.9,14.7-11.3,21.7v-1.7c3.3-6.4,7-12.6,9.9-19.2l-1.7-1.5c-8.9,5.2-19,19.6-24.9,30.8
	c-1.3,3.5-7,11.8-8.2,13.2c-8.9,11.4-20.6,19.2-32.4,25.9v-1.1c9.8-5.1,18.1-12.5,26.4-20.4c5.4-6.2,9.2-11.4,12.2-18.2
	c6.6-13.2,16.7-26.4,26.3-31.3C358,223.4,359.3,224.5,360,225.7"/>
<path class="st1" d="M360,225.7c-2,8-6.9,14.7-11.3,21.7v-1.7c3.3-6.4,7-12.6,9.9-19.2l-1.7-1.5c-8.9,5.2-19,19.6-24.9,30.8
	c-1.3,3.5-7,11.8-8.2,13.2c-8.9,11.4-20.6,19.2-32.4,25.9v-1.1c9.8-5.1,18.1-12.5,26.4-20.4c5.4-6.2,9.2-11.4,12.2-18.2
	c6.6-13.2,16.7-26.4,26.3-31.3C358,223.4,359.3,224.5,360,225.7z"/>
<path class="st0" d="M281.6,243.5c-4.1,6.3-6.3,9.5-13.5,18c-4.3,5.7-4.9,5.1-7.7,8.4c-21.8,22.2-38.1,53.3-38.8,53.9l-1.7-1.7
	c5.4-9.5,10.6-18.4,17.5-27.3c3.8-5.2,5.2-8,19.7-24.8c8.9-10,19.1-18.4,24.3-30.2C283.1,240.5,283.6,239.1,281.6,243.5"/>
<path class="st1" d="M281.6,243.5c-4.1,6.3-6.3,9.5-13.5,18c-4.3,5.7-4.9,5.1-7.7,8.4c-21.8,22.2-38.1,53.3-38.8,53.9l-1.7-1.7
	c5.4-9.5,10.6-18.4,17.5-27.3c3.8-5.2,5.2-8,19.7-24.8c8.9-10,19.1-18.4,24.3-30.2C283.1,240.5,283.6,239.1,281.6,243.5z"/>
<path class="st0" d="M363.6,240.9c-2.7,2.2-6.2,4.6-9,6.9c-2.8,2.3-4.9,4.6-6.5,6.9c-4.8,5.8-10,19-19.5,25.9
	c-8.2,6.5-15.6,14.4-23.7,21.1l1.1-2c11.6-11.9,25.4-19.7,33.3-34.1c4.3-7.7,10.5-17.9,19.2-22.6C360.8,242.4,362.6,241,363.6,240.9
	"/>
<path class="st1" d="M363.6,240.9c-2.7,2.2-6.2,4.6-9,6.9c-2.8,2.3-4.9,4.6-6.5,6.9c-4.8,5.8-10,19-19.5,25.9
	c-8.2,6.5-15.6,14.4-23.7,21.1l1.1-2c11.6-11.9,25.4-19.7,33.3-34.1c4.3-7.7,10.5-17.9,19.2-22.6C360.8,242.4,362.6,241,363.6,240.9
	z"/>
<path class="st0" d="M365.6,243.8c-0.6,2.2-2.2,3.9-3.1,5.9c-4.4,9.9-11.3,18.7-16.1,28.5c-1.6,2.7-5.4,7.3-5.4,7.3
	c-4.9,7.8-21.2,27.4-24,28.2c-2.2-1.1,26.7-30,33-45.1C355.3,260.3,358.8,250.6,365.6,243.8"/>
<path class="st1" d="M365.6,243.8c-0.6,2.2-2.2,3.9-3.1,5.9c-4.4,9.9-11.3,18.7-16.1,28.5c-1.6,2.7-5.4,7.3-5.4,7.3
	c-4.9,7.8-21.2,27.4-24,28.2c-2.2-1.1,26.7-30,33-45.1C355.3,260.3,358.8,250.6,365.6,243.8z"/>
<path class="st0" d="M165.1,266.5c-4.2,13.3-11.1,25.8-19,37.6c17.8,13.5,36.4,30.2,45.1,49.9c-12.9-17.7-27.8-36.9-46.5-48.2
	l-4.5,5.9l-0.9-0.3c0.6-2.7,3.4-4.8,3.4-7.3c-4.2-2.8-8.4-5.3-12.4-8.5c0.3-1.3,2.3-0.9,3.1-0.3c4,2.3,7.7,5.1,11.6,7.6
	c2.7-3.8,5.9-7.9,7.6-12.4c3.2-4.6,4.9-9.7,7.3-14.7c4.6-10.4,8.9-20.8,12.1-31.9C170.7,251.5,168.4,258,165.1,266.5"/>
<path class="st1" d="M165.1,266.5c-4.2,13.3-11.1,25.8-19,37.6c17.8,13.5,36.4,30.2,45.1,49.9c-12.9-17.7-27.8-36.9-46.5-48.2
	l-4.5,5.9l-0.9-0.3c0.6-2.7,3.4-4.8,3.4-7.3c-4.2-2.8-8.4-5.3-12.4-8.5c0.3-1.3,2.3-0.9,3.1-0.3c4,2.3,7.7,5.1,11.6,7.6
	c2.7-3.8,5.9-7.9,7.6-12.4c3.2-4.6,4.9-9.7,7.3-14.7c4.6-10.4,8.9-20.8,12.1-31.9C170.7,251.5,168.4,258,165.1,266.5z"/>
<path class="st0" d="M282.7,247.7c-0.3,3.8-1.3,4.5-2,8.3c-0.7,2.3-2.1,6.3-4.2,10.9c-2,4.3-2,6.7-11.2,20.6
	c-3.7,5.4-6.8,9-10.2,13.8v-1.4c4.2-5.3,8.1-12.6,12.1-18.9c5.2-8.1,9.9-19.3,12.4-26.7C281.1,251.7,281.2,246.9,282.7,247.7"/>
<path class="st1" d="M282.7,247.7c-0.3,3.8-1.3,4.5-2,8.3c-0.7,2.3-2.1,6.3-4.2,10.9c-2,4.3-2,6.7-11.2,20.6
	c-3.7,5.4-6.8,9-10.2,13.8v-1.4c4.2-5.3,8.1-12.6,12.1-18.9c5.2-8.1,9.9-19.3,12.4-26.7C281.1,251.7,281.2,246.9,282.7,247.7z"/>
<path class="st0" d="M372.1,281.3c-0.9,4-3.7,7.9-6.2,11.6l-7.2,9.5c0,0-3.8,4.6-3.8,4.9c-7.6,8.2-10.4,13-21.4,21.1
	c-9.2,7.9-20.4,12.9-31,18.6c5.4-8,19.7-12.5,23.4-15.8c5.5-3,13.5-10,18-14.6c10.9-10.9,20.8-21.4,27.7-34.2
	c-1.3-0.3-3,0.3-4.2,0.9c-12.1,4.7-18.4,18.2-29.6,25.1c-5.9,5.4-18.7,10.5-19.7,10.7l-0.3-0.3c8.7-4.6,17.4-8.9,24.4-16.4
	c7.1-5.6,10.5-12.8,21.3-18.5C365.7,282.2,369.3,282,372.1,281.3"/>
<path class="st1" d="M372.1,281.3c-0.9,4-3.7,7.9-6.2,11.6l-7.2,9.5c0,0-3.8,4.6-3.8,4.9c-7.6,8.2-10.4,13-21.4,21.1
	c-9.2,7.9-20.4,12.9-31,18.6c5.4-8,19.7-12.5,23.4-15.8c5.5-3,13.5-10,18-14.6c10.9-10.9,20.8-21.4,27.7-34.2
	c-1.3-0.3-3,0.3-4.2,0.9c-12.1,4.7-18.4,18.2-29.6,25.1c-5.9,5.4-18.7,10.5-19.7,10.7l-0.3-0.3c8.7-4.6,17.4-8.9,24.4-16.4
	c7.1-5.6,10.5-12.8,21.3-18.5C365.7,282.2,369.3,282,372.1,281.3z"/>
<path class="st0" d="M315.2,459.3v0.9c-3.3,4.8-5.7,9.9-9.9,14.4c-1.7-1.1-3.3-2.5-5.1-3.1l-9.3,15c-3.2-1.6-4.4-1.4-6.5-2.5
	c-2.1,4-3.7,8.7-5.9,13c-2.7,0.5-4.9-1.9-7.6-2.3c-0.5,1,0.6,3,0.5,4.1c1.5,0.1-2.2,2.8-3.3,3.2c-6.2,5.5-12,11-17.8,16.9
	c-0.8-0.7-2.6-0.7-2.3-2.3c6.1-12.1,14.2-23.5,24.5-33.5c10.9-10.5,31.8-23.1,38.9-22.3c-16.2,7.4-31.4,18-44.8,31.6
	c-4.9,7-11.3,13.5-14.7,21.1c0.1,0.3,0.6,0.3,0.8,0.3c4.6-4.7,9.1-11.2,14.9-15c-0.1-3,0.2-4.8,1.5-7c2.5,0.9,5,1.4,7.3,2.6
	c2.6-4.2,4.5-8.8,5.9-13.5c2.5,0.6,4.7,2,7,3.1c3.3-5,5.7-10.4,9.9-15c2.4,0,4.8,4.5,7,0.9c2.5-2.5,4.5-5.5,6.6-8.1
	c-0.3-2.8-7.8-2.5-11.2-3.2h-7.9c0.1,1.8,0.8,4.1,1.7,5.9c-7,2-14.6,2.7-21.1,5.6c1.1,2.1,3.4,3.7,4.2,5.9
	c-7.2,0.4-14.2,1.1-20.3,4.2c2,2.9,6.3,3.3,7.6,6.8c-2.9,0.8-4.7-2.5-7.3-3.4l-3.9-3.7c3.1-1.5,6.6-3.1,10.2-4.2
	c2.9-0.8,5.9-1.2,9-1.4c-0.8-2.1-2.5-3.6-4.2-4.8c7.2-2.7,14.6-5.1,22.6-5.9c0.5-0.3,0.2-0.9,0.3-1.4c-0.4-1.7-3.1-3.7-1.7-5.6
	C299.3,455.9,307.8,455.9,315.2,459.3"/>
<path class="st1" d="M315.2,459.3v0.9c-3.3,4.8-5.7,9.9-9.9,14.4c-1.7-1.1-3.3-2.5-5.1-3.1l-9.3,15c-3.2-1.6-4.4-1.4-6.5-2.5
	c-2.1,4-3.7,8.7-5.9,13c-2.7,0.5-4.9-1.9-7.6-2.3c-0.5,1,0.6,3,0.5,4.1c1.5,0.1-2.2,2.8-3.3,3.2c-6.2,5.5-12,11-17.8,16.9
	c-0.8-0.7-2.6-0.7-2.3-2.3c6.1-12.1,14.2-23.5,24.5-33.5c10.9-10.5,31.8-23.1,38.9-22.3c-16.2,7.4-31.4,18-44.8,31.6
	c-4.9,7-11.3,13.5-14.7,21.1c0.1,0.3,0.6,0.3,0.8,0.3c4.6-4.7,9.1-11.2,14.9-15c-0.1-3,0.2-4.8,1.5-7c2.5,0.9,5,1.4,7.3,2.6
	c2.6-4.2,4.5-8.8,5.9-13.5c2.5,0.6,4.7,2,7,3.1c3.3-5,5.7-10.4,9.9-15c2.4,0,4.8,4.5,7,0.9c2.5-2.5,4.5-5.5,6.6-8.1
	c-0.3-2.8-7.8-2.5-11.2-3.2h-7.9c0.1,1.8,0.8,4.1,1.7,5.9c-7,2-14.6,2.7-21.1,5.6c1.1,2.1,3.4,3.7,4.2,5.9
	c-7.2,0.4-14.2,1.1-20.3,4.2c2,2.9,6.3,3.3,7.6,6.8c-2.9,0.8-4.7-2.5-7.3-3.4l-3.9-3.7c3.1-1.5,6.6-3.1,10.2-4.2
	c2.9-0.8,5.9-1.2,9-1.4c-0.8-2.1-2.5-3.6-4.2-4.8c7.2-2.7,14.6-5.1,22.6-5.9c0.5-0.3,0.2-0.9,0.3-1.4c-0.4-1.7-3.1-3.7-1.7-5.6
	C299.3,455.9,307.8,455.9,315.2,459.3z"/>
<path class="st0" d="M184.7,479.3l-0.6,2.3c5.7-0.5,13.5-3.2,18.3,1.4c-0.5,2-1.3,3.8-1.4,5.9c5-0.4,11.4-0.9,15.5,2.5
	c-0.9,2.7-3.2,4.7-5.6,5.9c-2.6-2,4.9-4.9,0.3-5.9c-4.1-0.7-8.8,0.3-12.7-0.8c-0.6-2.5,2.7-7.3-1.7-7.3c-5.6-2.1-15.4,3-15.5-0.6
	c-0.1-1,0.5-1.8,0.3-2.8c-4.9-2.4-11.8-1.4-17.2-0.8c1,5.3,5.6,10,9.3,14.7c1.3,0.7,1.4,2.7,3.1,2.5c1.1-3.1,2.4-6,3.7-9h0.6
	c2.7,5.6,5.9,12.4,11.8,15.2c1.6-2.3,2-5.2,4.2-7.3c1.8,1.8,0.9,5.2,2.3,7.3c1.3,3.1,2.9,6.5,5.9,8.5c1.3-2.4,2.5-4.8,4-7
	c0.9-2.6,3.5,6.3,5.3,9.6c3.6,0.4,6.2,3.4,9.3,5.1c0.6-1.3-1.1-2.3-1.7-3.4c-14.5-17.8-33.4-29-54.1-33.5c-0.6-0.9-1.8-0.6-2-1.7
	c11.8,3,24,7,34.7,13.5c0.4-1.1,1.5-0.7,2.3,0c0.1,0.4,0.3,0.9,0.3,1.4c10,7.5,19.5,15.6,25.4,26.5c-6.3-0.1-10.9-6.1-17.2-7
	c-1.1-1.9-0.1-4.7-2-6.2c-2.1,1.4-1.4,5.6-3.9,5.9c-4.6-2.8-7.6-7.8-9-12.7c-1.8,0.7-1.6,4.9-3.9,4.2c-5.4-3.7-9-9.4-11.8-14.4
	l-0.9,0.9c-0.4,2.5-1.8,4.6-2.3,7c-2.1,0-4.2-2.4-5.6-4.2c-3.7-5.2-9.3-10.1-9.9-16.9c2.4-2.3,6.2-1.3,9.3-2
	C176,476.6,180.9,476.5,184.7,479.3"/>
<path class="st1" d="M184.7,479.3l-0.6,2.3c5.7-0.5,13.5-3.2,18.3,1.4c-0.5,2-1.3,3.8-1.4,5.9c5-0.4,11.4-0.9,15.5,2.5
	c-0.9,2.7-3.2,4.7-5.6,5.9c-2.6-2,4.9-4.9,0.3-5.9c-4.1-0.7-8.8,0.3-12.7-0.8c-0.6-2.5,2.7-7.3-1.7-7.3c-5.6-2.1-15.4,3-15.5-0.6
	c-0.1-1,0.5-1.8,0.3-2.8c-4.9-2.4-11.8-1.4-17.2-0.8c1,5.3,5.6,10,9.3,14.7c1.3,0.7,1.4,2.7,3.1,2.5c1.1-3.1,2.4-6,3.7-9h0.6
	c2.7,5.6,5.9,12.4,11.8,15.2c1.6-2.3,2-5.2,4.2-7.3c1.8,1.8,0.9,5.2,2.3,7.3c1.3,3.1,2.9,6.5,5.9,8.5c1.3-2.4,2.5-4.8,4-7
	c0.9-2.6,3.5,6.3,5.3,9.6c3.6,0.4,6.2,3.4,9.3,5.1c0.6-1.3-1.1-2.3-1.7-3.4c-14.5-17.8-33.4-29-54.1-33.5c-0.6-0.9-1.8-0.6-2-1.7
	c11.8,3,24,7,34.7,13.5c0.4-1.1,1.5-0.7,2.3,0c0.1,0.4,0.3,0.9,0.3,1.4c10,7.5,19.5,15.6,25.4,26.5c-6.3-0.1-10.9-6.1-17.2-7
	c-1.1-1.9-0.1-4.7-2-6.2c-2.1,1.4-1.4,5.6-3.9,5.9c-4.6-2.8-7.6-7.8-9-12.7c-1.8,0.7-1.6,4.9-3.9,4.2c-5.4-3.7-9-9.4-11.8-14.4
	l-0.9,0.9c-0.4,2.5-1.8,4.6-2.3,7c-2.1,0-4.2-2.4-5.6-4.2c-3.7-5.2-9.3-10.1-9.9-16.9c2.4-2.3,6.2-1.3,9.3-2
	C176,476.6,180.9,476.5,184.7,479.3z"/>
<path class="st0" d="M239.7,459.3c-1.5,17.6-0.9,36.8,0.6,53.9l2,12.4c-1.3-0.1-3.6,0-4.2-2c-2.3-19.9-3.9-40.6-1.2-62L239.7,459.3z
	"/>
<path class="st1" d="M239.7,459.3c-1.5,17.6-0.9,36.8,0.6,53.9l2,12.4c-1.3-0.1-3.6,0-4.2-2c-2.3-19.9-3.9-40.6-1.2-62L239.7,459.3z
	"/>
<path class="st2" d="M-229.4,437.7c0,6.3-1.1,7.1-4.1,9.2h69.3v-15.4c-1.8,1.8-2.1,4.8-10.3,4.8h-39.8V346c0-6.3,1.1-7.1,4.1-9.2
	h-23.4c3,2.1,4.1,2.9,4.1,9.2V437.7z"/>
<path class="st2" d="M-148.5,437.9c-2.9,7.6-5.2,7.7-6.7,9.1h20.9c-0.6-1.4-3.3-0.6-3.3-5.6c0-1.2,0.3-2,0.9-3.6l10.5-28.1h43.8
	l11.1,29c0.4,1.4,1.1,2.6,1.1,3.6c0,3-2.3,3.3-3.5,4.7H-49c-3-2.1-3.9-2.4-6.2-8.3l-39.3-101.9H-114c0.9,1.2,2.1,2.6,2.1,4.7
	c0,1.2-0.3,2.6-0.8,3.6L-148.5,437.9z M-122.7,399.8l18.4-48.2l18.5,48.2H-122.7z"/>
<path class="st2" d="M-31.2,437.7c0,6.3-1.1,7.1-4.1,9.2H-12c-3-2.1-4.1-2.9-4.1-9.2v-38.7H3.4l29.3,47.9h19.9c-2.6-2-3.3-2.3-8-9.2
	L18.1,397c18.8-3.3,27.6-17.1,27.6-27.6c0-23.1-13.5-32.6-46.1-32.6h-34.9c3,2.1,4.1,2.9,4.1,9.2V437.7z M-16,388.5v-41.2h15.6
	c23.2,0,30.9,9.1,30.9,21.9c0,19.3-19.6,19.3-30.9,19.3H-16z"/>
<path class="st2" d="M123.3,449.2c33.1,0,53.8-28.5,53.8-56.9c0-30.6-21.8-57.8-53.4-57.8c-32.9,0-54.5,27.6-54.5,57.8
	C69.3,422.5,91.9,449.2,123.3,449.2 M84.4,392c0-24,15-46.2,39.1-46.2c22.4,0,38.4,21.3,38.4,46.2c0,22.3-14.2,45.9-38.5,45.9
	C99.1,437.9,84.4,414.9,84.4,392"/>
<path class="st2" d="M288.4,346c0-6.3,1.1-7.1,4.1-9.2h-18.8c3,2.1,4.1,2.9,4.1,9.2v62.7c0,18-4.7,30-29.1,30
	c-22.8,0-26.3-14-26.3-30V346c0-6.3,1.1-7.1,4.1-9.2h-23.4c3,2.1,4.1,2.9,4.1,9.2v62.7c0,24,7.4,40.6,40.5,40.6
	c34.7,0,40.7-16.8,40.7-40.6V346z"/>
<path class="st2" d="M380.6,338.4c-1.4,1.1-2.1,1.7-3.5,1.7c-5.5,0-8.8-5.6-24-5.6c-21.4,0-37.3,12.8-37.3,31.7
	c0,13.1,9,23.1,24,28.7l15.6,5.9c11.7,4.4,17.9,8.8,17.9,18.4c0,11.6-10.3,18.7-24.4,18.7c-19.3,0-27.7-10.6-31.5-16.7V445
	c1-1.1,2.1-2.7,3.6-2.7c5.9,0,12,6.9,29.4,6.9c22.6,0,38.1-13.6,38.1-31.9c0-15.1-9.1-22.9-27-29.6L346,382
	c-10.9-4.1-15-8.6-15-17.2c0-11.3,9.7-19,21.8-19c18.7,0,26.4,12.7,27.8,13.9V338.4z"/>
<path class="st2" d="M471.3,338.4c-1.4,1.1-2.1,1.7-3.5,1.7c-5.5,0-8.8-5.6-24-5.6c-21.4,0-37.3,12.8-37.3,31.7
	c0,13.1,8.9,23.1,24,28.7l15.6,5.9c11.7,4.4,17.9,8.8,17.9,18.4c0,11.6-10.3,18.7-24.4,18.7c-19.3,0-27.7-10.6-31.6-16.7V445
	c1.1-1.1,2.1-2.7,3.7-2.7c5.9,0,12,6.9,29.4,6.9c22.6,0,38.1-13.6,38.1-31.9c0-15.1-9.1-22.9-27-29.6l-15.5-5.7
	c-10.9-4.1-15-8.6-15-17.2c0-11.3,9.7-19,21.8-19c18.7,0,26.4,12.7,27.8,13.9V338.4z"/>
<path class="st2" d="M506,437.7c0,6.3-1.1,7.1-4.1,9.2h69.3v-15.4c-2,2.1-2.1,4.8-10.3,4.8h-39.8v-41.2h35.7c8,0,8,1.7,9.6,3.5
	v-17.5c-1.8,2.1-2.1,3.5-10,3.5h-35.2v-37.3h39.8c8.3,0,8.8,3,10.3,4.8v-15.4h-69.3c3,2.1,4.1,2.9,4.1,9.2V437.7z"/>
</svg>
